# xmcd
#
# Track frame offsets: 
#        150
#        20098
#        38491
#        55049
#        74084
#        92994
#        111293
#        132514
#        149512
#        164602
#
# Disc length: 2447 seconds
#
# Revision: 0
# Processed by: cddbd v1.5.2PL0 Copyright (c) Steve Scherf et al.
# Submitted via: ExactAudioCopy v0.99pb4
#
DISCID=98098d0a
DTITLE=สาวมาด เมกะแดนซ์ - ดาวมหาลัย
DYEAR=2008
DGENRE=Country
TTITLE0=ดาวมหาลัย
TTITLE1=เรื่องกล้วยๆ
TTITLE2=คิดได้ไง
TTITLE3=ผู้นำความม่วน
TTITLE4=อย่าขอสตริง
TTITLE5=ปากร้ายแต่ใจรัก
TTITLE6=กุ้งเต้น
TTITLE7=ไม่รับสายใจร้ายจัง
TTITLE8=อย่าถามได้บ่
TTITLE9=เอาคืน
EXTD=
EXTT0=
EXTT1=
EXTT2=
EXTT3=
EXTT4=
EXTT5=
EXTT6=
EXTT7=
EXTT8=
EXTT9=
PLAYORDER=
